<svg xmlns="http://www.w3.org/2000/svg" viewBox="0 0 137.06 22.87"><g id="Layer_2" data-name="Layer 2"><g id="Layer_1-2" data-name="Layer 1"><path d="M2.21,17V14.86a3.27,3.27,0,0,0,2.18.91,2.13,2.13,0,0,0,2.26-2.14c0-3.81-6.65-4.2-6.65-9C0,1.63,2.5,0,5.3,0c2.48,0,5,1.58,5,4.25A3.54,3.54,0,0,1,8.16,7.46L7,6.24A2.14,2.14,0,0,0,8.35,4.3c0-1.71-1.46-2.62-3-2.62-1.75,0-3.43,1-3.43,3,0,3.6,6.6,4.24,6.6,9a3.8,3.8,0,0,1-4.08,3.89A3.92,3.92,0,0,1,2.21,17Z"/><path d="M13.58,14.67V10.46H11V8.83h2.54V4.06h1.73V8.83H18v1.63H15.31v4c0,.77.39,1.49,1.23,1.49a2,2,0,0,0,1.34-.5V17a2.59,2.59,0,0,1-1.66.5A2.56,2.56,0,0,1,13.58,14.67Z"/><path d="M30.43,15.46V17a2.94,2.94,0,0,1-1.77.5,2.3,2.3,0,0,1-2.21-1.73,2.8,2.8,0,0,1-2.62,1.76,3.17,3.17,0,0,1-3.21-3.39V8.83h1.75V14a1.76,1.76,0,0,0,1.82,2,2.33,2.33,0,0,0,2.11-2.28V8.83H28v5.91a1.14,1.14,0,0,0,1.15,1.2A1.75,1.75,0,0,0,30.43,15.46Z"/><path d="M43.13,15.46V17a3.09,3.09,0,0,1-1.78.51,2.29,2.29,0,0,1-2.23-1.85,3.64,3.64,0,0,1-3.22,1.82,4.3,4.3,0,0,1-4.24-4.46A4.29,4.29,0,0,1,35.9,8.62,3.66,3.66,0,0,1,39,10.2V.26h1.75V14.74a1.1,1.1,0,0,0,1.13,1.2A1.65,1.65,0,0,0,43.13,15.46ZM39,12.39a2.81,2.81,0,0,0-2.76-2.29,3,3,0,0,0,0,5.91A2.78,2.78,0,0,0,39,13.73Z"/><path d="M52.61,8.83V19a3.81,3.81,0,0,1-3,3.84L49,21.39A2.43,2.43,0,0,0,50.88,19V16.11a2.82,2.82,0,0,1-2.47,1.44,3.18,3.18,0,0,1-3.22-3.39V8.83h1.75V14a1.76,1.76,0,0,0,1.83,2,2.34,2.34,0,0,0,2.11-2.28V8.83Z"/><path d="M73,10.87a3.66,3.66,0,0,1,3.38,3.39,3.3,3.3,0,0,1-3.43,3.26,3.61,3.61,0,0,1-3.43-1.82A2.45,2.45,0,0,1,67,17.52,3,3,0,0,1,65.26,17V15.17a1.87,1.87,0,0,0,1.36.62,1.22,1.22,0,0,0,1.16-1.34V4.15h1.84v5.93c.29,0,.56,0,.82,0,2.45-.08,5.38-.79,5.38-3.8s-2.93-4.53-6-4.53c-3.36,0-6.27,1.82-6.27,5.45a3.8,3.8,0,0,0,1,2.64L63.14,11a5.18,5.18,0,0,1-1.39-3.81c0-4.66,3.6-7.18,8-7.18s7.94,2.26,7.94,6.14C77.71,8.74,75.65,10.58,73,10.87Zm-2.35.68c-.34,0-.65,0-1,0v2a2.38,2.38,0,0,0,2.67,2.31A2,2,0,0,0,74.52,14C74.52,11.91,72.31,11.55,70.61,11.55Z"/><path d="M89.83,15.46V17a2.94,2.94,0,0,1-1.77.5,2.3,2.3,0,0,1-2.21-1.73,2.8,2.8,0,0,1-2.62,1.76A3.17,3.17,0,0,1,80,14.16V8.83h1.75V14a1.76,1.76,0,0,0,1.82,2,2.33,2.33,0,0,0,2.11-2.28V8.83h1.73v5.91a1.14,1.14,0,0,0,1.15,1.2A1.77,1.77,0,0,0,89.83,15.46Z"/><path d="M102.53,15.46V17a3.09,3.09,0,0,1-1.78.51,2.29,2.29,0,0,1-2.23-1.85,3.64,3.64,0,0,1-3.22,1.82,4.31,4.31,0,0,1-4.25-4.46A4.3,4.3,0,0,1,95.3,8.62a3.66,3.66,0,0,1,3.1,1.58V.26h1.75V14.74a1.1,1.1,0,0,0,1.13,1.2A1.65,1.65,0,0,0,102.53,15.46ZM98.4,12.39a2.81,2.81,0,0,0-2.76-2.29,3,3,0,0,0,0,5.91,2.78,2.78,0,0,0,2.76-2.28Z"/><path d="M115.22,15.46V17a3.05,3.05,0,0,1-1.77.51,2.3,2.3,0,0,1-2.24-1.85A3.61,3.61,0,0,1,108,17.52a4.31,4.31,0,0,1-4.25-4.46A4.3,4.3,0,0,1,108,8.62a3.65,3.65,0,0,1,3.09,1.58V.26h1.76V14.74a1.09,1.09,0,0,0,1.13,1.2A1.63,1.63,0,0,0,115.22,15.46Zm-4.13-3.07a2.8,2.8,0,0,0-2.76-2.29,3,3,0,0,0,0,5.91,2.77,2.77,0,0,0,2.76-2.28Z"/><path d="M116.83,4.15a1.32,1.32,0,1,1,2.64,0,1.32,1.32,0,1,1-2.64,0Zm2.81,13.37a2.43,2.43,0,0,1-2.35-2.61V8.83H119v5.91a1.13,1.13,0,0,0,1.16,1.2,1.78,1.78,0,0,0,1.25-.48V17A3,3,0,0,1,119.64,17.52Z"/><path d="M127.44,16a4.08,4.08,0,0,0,2.49-.77V17a5.52,5.52,0,0,1-2.47.55A4.55,4.55,0,0,1,122.64,13,4.44,4.44,0,0,1,127,8.62a4.48,4.48,0,0,1,3.7,1.87l-5.07,5A3.49,3.49,0,0,0,127.44,16Zm-3.22-3a2.8,2.8,0,0,0,.43,1.54l3.85-3.86a2.66,2.66,0,0,0-1.57-.58A2.77,2.77,0,0,0,124.22,13Z"/><path d="M132.69,17.07V15.34a2.21,2.21,0,0,0,1.47.62,1.15,1.15,0,0,0,1.17-1.15c0-1.37-1.87-2.16-1.87-3.84a2.62,2.62,0,0,1,1.59-2.47L136,9.77a1.31,1.31,0,0,0-.79,1.2c0,1.22,1.87,2.06,1.87,4a2.47,2.47,0,0,1-2.47,2.57A3.49,3.49,0,0,1,132.69,17.07Z"/></g></g></svg>